<?xml version="1.0" encoding="UTF-8"?>
<svg id="Layer_2" data-name="Layer 2" xmlns="http://www.w3.org/2000/svg" viewBox="0 0 200 200">
  <circle cx="89.94" cy="76.11" r="18.72" fill="none" stroke="#000" stroke-miterlimit="10" stroke-width="12"/>
  <path d="M115.14,106.62c-9.13-8.86-23.03-8.46-24.23-8.46-1.9,0-34.11-.62-34.11,34.26" fill="none" stroke="#000" stroke-miterlimit="10" stroke-width="12"/>
  <polyline points="99.51 168.97 30.61 168.97 30.61 30.64 168.6 30.64 168.6 99.8" fill="none" stroke="#000" stroke-miterlimit="10" stroke-width="12"/>
  <g>
    <circle cx="147.85" cy="142.98" r="8.21"/>
    <path d="M147.85,114.47c-4.28,0-8.34.95-11.98,2.65l-6.7-6.7-13.62,13.62,6.6,6.6c-.43.9-.81,1.82-1.15,2.77h-9.33v19.26h9.38c.34.93.72,1.84,1.15,2.72l-6.65,6.65,13.62,13.62,6.79-6.79c3.62,1.67,7.65,2.61,11.89,2.61,15.72,0,28.51-12.79,28.51-28.51s-12.79-28.51-28.51-28.51ZM147.85,162.38c-4.42,0-8.49-1.5-11.75-4l-.2.2-6.29,6.29-.4.4-3-3,.35-.35,6.34-6.33.12-.12c-2.36-2.8-3.94-6.28-4.41-10.1h-9.4v-4.24h9.33c.37-3.89,1.9-7.45,4.24-10.33l-.08-.08-6.39-6.38-.11-.11,3-3,.11.11,6.38,6.38.09.09c3.31-2.64,7.5-4.23,12.05-4.23,10.7,0,19.4,8.7,19.4,19.4s-8.7,19.4-19.4,19.4Z"/>
  </g>
</svg>