<?xml version="1.0" encoding="UTF-8"?>
<svg id="Layer_2" data-name="Layer 2" xmlns="http://www.w3.org/2000/svg" viewBox="0 0 200 200">
  <polygon points="73.42 127.29 99.9 156.71 125.88 127.29 159.96 127.29 159.96 48.13 39.9 48.13 39.9 127.29 73.42 127.29" fill="none" stroke="#000" stroke-miterlimit="10" stroke-width="12"/>
  <path d="M91.86,108.24c-2.62,0-4.87-.93-6.74-2.8s-2.8-4.11-2.8-6.74v-23.85h38.16c1.31,0,2.43.47,3.37,1.4s1.4,2.06,1.4,3.37v7.16c0,1.31-.47,2.43-1.4,3.37-.93.93-2.06,1.4-3.37,1.4h-4.77v7.16c0,2.62-.93,4.87-2.8,6.74s-4.11,2.8-6.74,2.8h-14.31ZM115.71,86.78h4.77v-7.16h-4.77v7.16ZM91.86,103.47h-4.77,23.85-19.08Z"/>
</svg>