<?xml version="1.0" encoding="UTF-8"?>
<svg id="Layer_2" data-name="Layer 2" xmlns="http://www.w3.org/2000/svg" viewBox="0 0 200 200">
  <polyline points="41.93 151.88 40.32 171.68 161.16 171.68 148.19 28.32 52.04 28.32 48.06 77.03" fill="none" stroke="#000" stroke-miterlimit="10" stroke-width="12"/>
  <ellipse cx="100.42" cy="60.87" rx="16.44" ry="12.14" fill="none" stroke="#000" stroke-miterlimit="10" stroke-width="10"/>
  <path d="M100.64,115.48c-17.19,1.53-30.36,15.96-30.36,33.55l-10.8-.86c0-23.22,17.57-41.54,40.26-43.52l.91,10.83Z"/>
  <path d="M38.84,140.11c1.79-13.96,7.93-25.86,17.72-36.05,9.77-10.16,21.25-16.59,35.07-18.94l.97,10.83c-10.89,2.17-20.43,7.56-28.21,15.65-7.86,8.17-12.89,18.25-14.58,29.37l-10.97-.86Z"/>
</svg>