<?xml version="1.0" encoding="UTF-8"?>
<svg id="Layer_2" data-name="Layer 2" xmlns="http://www.w3.org/2000/svg" viewBox="0 0 200 200">
  <path d="M162.07,96.9c0,29.51-27.12,53.43-60.57,53.43s-60.57-23.92-60.57-53.43,27.12-53.43,60.57-53.43c9.52,0,18.52,1.94,26.54,5.39,20.15,8.68,34.03,26.93,34.03,48.04Z" fill="none" stroke="#000" stroke-miterlimit="10" stroke-width="12"/>
  <polygon points="128.04 48.86 146.2 34.83 138.53 54.73 128.04 48.86"/>
  <polygon points="156.05 71.05 178.91 71.41 160.68 82.22 156.05 71.05"/>
  <polygon points="160.5 103.33 175.97 120.32 155.66 114.4 160.5 103.33"/>
  <polygon points="140.12 142.4 138.39 165.42 128.8 146.39 140.12 142.4"/>
  <polygon points="106.73 151.56 89.15 166.31 96.02 146.13 106.73 151.56"/>
  <polygon points="103.44 40.02 90.81 20.78 91.63 42.11 103.44 40.02"/>
  <polygon points="61.39 51.77 39.67 44.58 53.41 60.8 61.39 51.77"/>
  <polygon points="40.92 93.36 20.8 104.33 41.92 105.42 40.92 93.36"/>
  <polygon points="57.05 132.21 51.26 154.54 66.47 139.71 57.05 132.21"/>
  <polygon points="84.29 46.77 93.63 65.36 95.1 46.14 84.29 46.77"/>
  <polygon points="161.95 76.26 142.18 82.27 160.66 87.11 161.95 76.26"/>
  <polygon points="71.5 146.58 80.74 127.94 64.57 138.18 71.5 146.58"/>
  <polygon points="42.1 87.82 61.83 93.25 43.65 98.53 42.1 87.82"/>
  <polygon points="124.51 148.27 120.41 129.46 132.6 142.33 124.51 148.27"/>
</svg>