<?xml version="1.0" encoding="UTF-8"?>
<svg id="Layer_2" data-name="Layer 2" xmlns="http://www.w3.org/2000/svg" viewBox="0 0 200 200">
  <path d="M86.33,148.01h31.21c.67.02,1.33-.64,1.87-1.02l17.04-11.36c.39-.28.73-.64.93-1.07.79-1.73-.43-3.9-2.57-3.93l-47.75-.12-20.89-6.43-44.21,5.86" fill="none" stroke="#000" stroke-miterlimit="10" stroke-width="12"/>
  <polyline points="177.14 145.61 102.52 173.5 54.18 158.94 22.38 167.49" fill="none" stroke="#000" stroke-miterlimit="10" stroke-width="12"/>
  <line x1="122.15" y1="102.61" x2="179.61" y2="102.61" fill="none" stroke="#000" stroke-miterlimit="10" stroke-width="12"/>
  <line x1="20.32" y1="102.7" x2="77.68" y2="102.7" fill="none" stroke="#000" stroke-miterlimit="10" stroke-width="12"/>
  <line x1="100.04" y1="20.78" x2="100.04" y2="79.45" fill="none" stroke="#000" stroke-miterlimit="10" stroke-width="12"/>
  <line x1="85.1" y1="84.9" x2="46.4" y2="46.26" fill="none" stroke="#000" stroke-miterlimit="10" stroke-width="12"/>
  <line x1="115.15" y1="84.22" x2="154.24" y2="45.51" fill="none" stroke="#000" stroke-miterlimit="10" stroke-width="12"/>
  <path d="M71.65,108.65c0-15.5,12.64-28.07,28.23-28.07s28.23,12.57,28.23,28.07" fill="none" fill-rule="evenodd" stroke="#000" stroke-miterlimit="10" stroke-width="12"/>
</svg>