<?xml version="1.0" encoding="UTF-8"?>
<svg id="Layer_2" data-name="Layer 2" xmlns="http://www.w3.org/2000/svg" viewBox="0 0 200 200">
  <ellipse cx="98.49" cy="119.79" rx="66.1" ry="66.26" fill="none" stroke="#000" stroke-miterlimit="10" stroke-width="11"/>
  <path d="M132.24,119.53c0,36.45-13.79,66-33.61,66s-33.9-29.55-33.9-66,14.07-66,33.9-66,33.61,29.55,33.61,66Z" fill="none" stroke="#000" stroke-miterlimit="10" stroke-width="11"/>
  <line x1="32.38" y1="119.39" x2="133.83" y2="119.39" fill="none" stroke="#000" stroke-miterlimit="10" stroke-width="11"/>
  <line x1="39.07" y1="86.1" x2="157.22" y2="86.1" fill="none" stroke="#000" stroke-miterlimit="10" stroke-width="11"/>
  <line x1="37.91" y1="146.2" x2="158.17" y2="146.2" fill="none" stroke="#000" stroke-miterlimit="10" stroke-width="11"/>
  <line x1="99.26" y1="48.77" x2="99.26" y2="8.33" fill="none" stroke="#000" stroke-miterlimit="10" stroke-width="11"/>
  <line x1="133.83" y1="119.39" x2="166.13" y2="119.39" fill="none" stroke="#000" stroke-miterlimit="10" stroke-width="11"/>
  <path d="M166.58,39.37c-.5-.1-.9-.46-1.05-.95l-3.42-10.76h-2.42l-3.42,10.76c-.15.48-.56.85-1.05.95l-8.03,1.52v2.59l8.13,3.22c.44.16.76.53.87.98l3.46,14.33h2.47l3.46-14.33c.11-.45.44-.82.87-.98l8.13-3.22v-2.59l-8.03-1.52Z"/>
</svg>