<?xml version="1.0" encoding="UTF-8"?>
<svg id="Layer_2" data-name="Layer 2" xmlns="http://www.w3.org/2000/svg" viewBox="0 0 200 200">
  <g>
    <polygon points="95.8 39.05 95.8 42.6 95.8 104.13 102.23 104.13 102.23 42.54 102.23 39.05 99.74 39.05 95.8 39.05" stroke="#231f20" stroke-miterlimit="10" stroke-width="4.07"/>
    <path d="M97.92,140.11v6.11h-62.37s0-42.65,0-42.65h11.61l1.77,1.62c3.14,2.87,10.34,8.24,23.34,11.98,10.95,3.14,20.27,6.97,25.65,12.05v7.54c-4.54-3.49-18.72-11.26-27.22-13.7-14.14-4.06-22.15-10.06-25.66-13.28l-.1-.09h-3.5v30.42h56.48s0,0,0,0Z" stroke="#231f20" stroke-miterlimit="10" stroke-width="4.07"/>
    <path d="M102.08,140.11v6.11s62.37,0,62.37,0v-42.65s-11.61,0-11.61,0l-1.77,1.62c-3.14,2.87-10.34,8.24-23.34,11.98-10.95,3.14-20.27,6.97-25.65,12.05v7.54c4.54-3.49,18.72-11.26,27.22-13.7,14.14-4.06,22.15-10.06,25.66-13.28l.1-.09h3.5v30.42h-56.48s0,0,0,0Z" stroke="#231f20" stroke-miterlimit="10" stroke-width="4.07"/>
    <polygon points="130.42 160.95 130.42 121.14 137.07 117.75 137.07 160.95 133.81 156.78 130.42 160.95" stroke="#231f20" stroke-miterlimit="10" stroke-width="4.07"/>
  </g>
  <line x1="79.16" y1="57.43" x2="120.57" y2="57.43" stroke="#231f20" stroke-miterlimit="10" stroke-width="9.97"/>
</svg>