<?xml version="1.0" encoding="UTF-8"?>
<svg id="Layer_2" data-name="Layer 2" xmlns="http://www.w3.org/2000/svg" viewBox="0 0 200 200">
  <path d="M162.47,37.24v125.04H37.42V37.24h125.05M179.05,20.67H20.85v158.19h158.2V20.67h0Z"/>
  <path d="M99.23,130.74c-4.7,0-8.81-.7-12.31-2.08-3.5-1.39-6.23-3.42-8.18-6.09-1.95-2.67-2.93-5.93-2.93-9.78,0-2.46.4-4.64,1.2-6.53s1.94-3.51,3.41-4.85c1.47-1.34,3.19-2.38,5.17-3.13v-1.04c-1.5-.64-2.86-1.51-4.09-2.61-1.23-1.09-2.19-2.45-2.89-4.05-.7-1.6-1.04-3.47-1.04-5.61,0-3.63.95-6.63,2.85-8.98,1.9-2.35,4.49-4.13,7.78-5.33,3.29-1.2,6.96-1.8,11.02-1.8s7.88.6,11.14,1.8c3.26,1.2,5.83,2.98,7.7,5.33,1.87,2.35,2.81,5.35,2.81,8.98,0,2.14-.33,4.01-1,5.61-.67,1.6-1.62,2.95-2.85,4.05-1.23,1.1-2.62,1.96-4.17,2.61v1.04c1.98.75,3.71,1.79,5.21,3.13,1.5,1.34,2.65,2.95,3.45,4.85s1.2,4.08,1.2,6.53c0,3.85-.98,7.11-2.93,9.78-1.95,2.67-4.68,4.7-8.18,6.09-3.5,1.39-7.63,2.08-12.39,2.08ZM99.23,119.92c2.19,0,4.09-.32,5.69-.96,1.6-.64,2.86-1.62,3.77-2.93.91-1.31,1.36-2.9,1.36-4.77s-.44-3.43-1.32-4.69c-.88-1.25-2.14-2.22-3.77-2.89-1.63-.67-3.54-1-5.73-1s-4.02.33-5.65,1c-1.63.67-2.87,1.63-3.73,2.89-.86,1.26-1.28,2.82-1.28,4.69s.43,3.46,1.28,4.77c.85,1.31,2.1,2.29,3.73,2.93,1.63.64,3.51.96,5.65.96ZM99.23,92.98c2.78,0,4.97-.57,6.57-1.72,1.6-1.15,2.41-2.82,2.41-5.01s-.8-3.85-2.41-4.97c-1.6-1.12-3.8-1.68-6.57-1.68s-4.97.58-6.57,1.72-2.41,2.79-2.41,4.93.81,3.86,2.45,5.01c1.63,1.15,3.81,1.72,6.53,1.72Z"/>
</svg>