<?xml version="1.0" encoding="UTF-8"?>
<svg id="Layer_2" data-name="Layer 2" xmlns="http://www.w3.org/2000/svg" viewBox="0 0 200 200">
  <g>
    <path d="M60.23,112.62v-29.85h6.71v29.85h-6.71ZM66.12,88.33v-5.56h12.02v5.56h-12.02ZM66.12,100.6v-5.56h11.53v5.56h-11.53Z"/>
    <path d="M78.39,112.62l9.86-29.85h10.84l10.22,29.85h-6.95l-8.26-25.23,2.13.86h-5.28l2.21-.86-8.06,25.23h-6.71ZM85.87,105.22l2.04-5.56h11.7l2.09,5.56h-15.83Z"/>
    <path d="M125.46,113.4c-2.7,0-5.05-.47-7.05-1.41s-3.66-2.18-4.97-3.72c-1.31-1.54-2.28-3.21-2.92-5.01-.64-1.8-.96-3.53-.96-5.19v-.9c0-1.85.33-3.69,1-5.5.67-1.81,1.67-3.46,3.01-4.93,1.34-1.47,3-2.65,4.99-3.54,1.99-.89,4.29-1.33,6.91-1.33s4.92.44,6.91,1.33c1.99.89,3.65,2.07,4.99,3.54,1.34,1.47,2.34,3.12,3.03,4.93.68,1.81,1.02,3.65,1.02,5.5v.9c0,1.66-.33,3.39-.98,5.19-.65,1.8-1.64,3.47-2.94,5.01-1.31,1.54-2.96,2.78-4.97,3.72-2,.94-4.35,1.41-7.05,1.41ZM125.46,107.14c1.42,0,2.69-.25,3.82-.74,1.13-.49,2.1-1.17,2.9-2.04.8-.87,1.41-1.88,1.82-3.03.41-1.14.61-2.37.61-3.68,0-1.39-.21-2.66-.63-3.82-.42-1.16-1.04-2.17-1.84-3.03-.8-.86-1.77-1.52-2.88-1.98-1.12-.46-2.39-.7-3.8-.7s-2.69.23-3.8.7c-1.12.46-2.08,1.12-2.88,1.98-.8.86-1.41,1.87-1.82,3.03-.41,1.16-.61,2.43-.61,3.82,0,1.31.2,2.54.61,3.68.41,1.15,1.02,2.15,1.82,3.03.8.87,1.76,1.55,2.88,2.04,1.12.49,2.39.74,3.8.74ZM131.3,121.54c-1.85,0-3.46-.22-4.81-.65-1.35-.44-2.4-1.23-3.15-2.37-.75-1.14-1.12-2.78-1.12-4.91v-4.58h6.26v4.87c0,.79.22,1.4.67,1.82.45.42,1.07.63,1.86.63h4.46v5.19h-4.17Z"/>
  </g>
  <path d="M162.41,37.48v125.04H37.59V37.48h124.82M178.99,20.9H21.01v158.21h157.99V20.9h0Z"/>
</svg>