<?xml version="1.0" encoding="UTF-8"?>
<svg id="Layer_2" data-name="Layer 2" xmlns="http://www.w3.org/2000/svg" viewBox="0 0 200 200">
  <path d="M162.41,37.48v125.04H37.59V37.48h124.82M178.99,20.9H21.01v158.21h157.99V20.9h0Z"/>
  <path d="M100.2,128.68c-5.29,0-9.69-.77-13.19-2.31-3.51-1.54-6.15-3.72-7.93-6.56-1.78-2.83-2.67-6.16-2.67-10h11.9c0,1.51.4,2.93,1.21,4.25.81,1.32,2.1,2.38,3.88,3.16,1.78.78,4.05,1.17,6.8,1.17,3.67,0,6.49-.65,8.46-1.94,1.97-1.29,2.95-3.02,2.95-5.18,0-1.89-.84-3.44-2.51-4.65-1.67-1.21-4.34-2.01-8.01-2.39l-4.13-.32c-5.77-.54-10.36-2.28-13.76-5.22-3.4-2.94-5.1-7.11-5.1-12.5,0-3.72.84-6.84,2.51-9.35,1.67-2.51,4.07-4.4,7.2-5.67,3.13-1.27,6.88-1.9,11.25-1.9,4.69,0,8.63.73,11.82,2.19,3.18,1.46,5.6,3.56,7.24,6.31,1.65,2.75,2.47,6.1,2.47,10.04h-11.9c0-1.56-.36-2.95-1.09-4.17-.73-1.21-1.79-2.2-3.2-2.95-1.4-.75-3.18-1.13-5.34-1.13-1.89,0-3.51.27-4.86.81-1.35.54-2.38,1.31-3.08,2.31-.7,1-1.05,2.17-1.05,3.52,0,1.67.62,3.17,1.86,4.49,1.24,1.32,3.29,2.14,6.15,2.47l4.13.32c6.48.54,11.66,2.29,15.54,5.26,3.88,2.97,5.83,7.15,5.83,12.54,0,3.72-.92,6.88-2.75,9.47-1.83,2.59-4.49,4.56-7.97,5.91-3.48,1.35-7.7,2.02-12.67,2.02ZM94.13,73.24v-11.82h10.6v11.82h-10.6ZM94.46,138.79v-11.82h10.6v11.82h-10.6Z"/>
</svg>