<?xml version="1.0" encoding="UTF-8"?>
<svg id="Layer_2" data-name="Layer 2" xmlns="http://www.w3.org/2000/svg" viewBox="0 0 200 200">
  <path d="M162.47,37.24v125.04H37.42V37.24h125.05M179.05,20.67H20.85v158.19h158.2V20.67h0Z"/>
  <path d="M98.67,130.58c-4.65,0-8.66-.9-12.03-2.69-3.37-1.79-5.95-4.21-7.74-7.26-1.79-3.05-2.69-6.41-2.69-10.1h12.67c0,1.82.41,3.41,1.24,4.77.83,1.36,1.99,2.43,3.49,3.21,1.5.78,3.21,1.16,5.13,1.16,2.14,0,3.94-.44,5.41-1.32,1.47-.88,2.61-2.08,3.41-3.61s1.2-3.25,1.2-5.17-.39-3.73-1.16-5.25c-.78-1.52-1.9-2.74-3.37-3.65-1.47-.91-3.25-1.36-5.33-1.36-1.92,0-3.66.4-5.21,1.2-1.55.8-2.7,1.82-3.45,3.05h-12.35l2.97-33.03h35.52v11.22h-30.31l5.05-3.37-1.76,19-3.05-.8c1.6-1.92,3.54-3.54,5.81-4.85,2.27-1.31,5.25-1.96,8.94-1.96,4.28,0,7.92.87,10.94,2.61,3.02,1.74,5.34,4.06,6.98,6.98,1.63,2.91,2.45,6.16,2.45,9.74v1.04c0,3.58-.88,6.92-2.65,10.02-1.76,3.1-4.34,5.61-7.74,7.54-3.4,1.92-7.52,2.89-12.39,2.89Z"/>
</svg>