<?xml version="1.0" encoding="UTF-8"?>
<svg id="Layer_2" data-name="Layer 2" xmlns="http://www.w3.org/2000/svg" viewBox="0 0 200 200">
  <path d="M99.86,185.84c-30.8,0-31.44-35.05-33.08-47.33-.72-5.38-4.46-50.6-5.78-63.95-5.59-56.58,26.94-59.98,38.86-59.98,11.92,0,44.45,3.39,38.86,59.98-1.32,13.35-5.06,58.57-5.78,63.95-1.64,12.28-2.79,47.33-33.08,47.33Z" fill="none" stroke="#000" stroke-miterlimit="10" stroke-width="12"/>
  <path d="M137.19,91.27l-25.49-35.81c0-6.64-5.21-12.03-11.85-12.03s-12.03,5.38-12.03,12.03l-25.66,35.81" fill="none" stroke="#000" stroke-miterlimit="10" stroke-width="12"/>
  <path d="M133.69,112.28l-33.76-45.74c-.13-.17-.38-.17-.51,0l-33.76,45.74" fill="none" stroke="#000" stroke-miterlimit="10" stroke-width="12"/>
</svg>