<?xml version="1.0" encoding="UTF-8"?>
<svg id="Layer_2" data-name="Layer 2" xmlns="http://www.w3.org/2000/svg" viewBox="0 0 200 200">
  <ellipse cx="100" cy="100" rx="84.61" ry="84.8" fill="none" stroke="#231f20" stroke-miterlimit="10" stroke-width="13"/>
  <polygon points="73.38 45.28 74.95 117.38 74 114 92.34 145.38 93.17 146.82 93.19 148.42 93.45 177.59 81.24 177.59 81.5 148.42 82.35 151.46 62.89 120.76 61.91 119.21 61.95 117.38 63.51 45.28 73.38 45.28 73.38 45.28" fill="#231f20"/>
  <polygon points="82.76 117.38 84.35 45.28 94.18 45.28 95.76 117.38 82.76 117.38 82.76 117.38" fill="#231f20"/>
  <polygon points="136.49 45.28 138.05 117.38 138.09 119.21 137.11 120.76 117.65 151.46 118.5 148.42 118.76 177.59 106.55 177.59 106.81 148.42 106.83 146.82 107.66 145.38 126 114 125.05 117.38 126.62 45.28 136.49 45.28 136.49 45.28" fill="#231f20"/>
  <polygon points="104.05 117.38 105.63 45.28 115.47 45.28 117.05 117.38 104.05 117.38 104.05 117.38" fill="#231f20"/>
</svg>