<?xml version="1.0" encoding="UTF-8"?>
<svg id="Layer_2" data-name="Layer 2" xmlns="http://www.w3.org/2000/svg" viewBox="0 0 200 200">
  <path d="M127.98,38.72c-4.73-4.69-9.85-5.65-13.31-5.64-.14,0-.28,0-.41,0-6.94.23-12.85,5.2-13.97,6.2l-.27.24-.27-.24c-1.12-.98-7.09-5.9-14.02-6.06-.14,0-.28,0-.42,0-3.46.02-8.57,1.03-13.26,5.76-3.06,3.09-4.66,7.14-4.63,11.7.07,8.51,7.38,15.8,7.45,15.87l25.39,24.59,25.16-24.82c.07-.07,7.31-7.42,7.3-15.93,0-4.56-1.64-8.59-4.74-11.65Z"/>
  <path d="M84.23,130.82h35.57c.77.02,1.52-.75,2.14-1.2l19.5-13.29c.45-.33.84-.75,1.06-1.25.91-2.02-.49-4.56-2.95-4.6l-54.65-.14-23.91-7.52-50.59,6.86" fill="none" stroke="#000" stroke-miterlimit="10" stroke-width="12"/>
  <polyline points="189.59 128.99 102.62 160.63 47.29 143.61 10.89 153.6" fill="none" stroke="#000" stroke-miterlimit="10" stroke-width="12"/>
</svg>