<?xml version="1.0" encoding="UTF-8"?>
<svg id="Layer_2" data-name="Layer 2" xmlns="http://www.w3.org/2000/svg" viewBox="0 0 200 200">
  <path d="M85.85,124.63c-6.35,0-11.78-2.26-16.3-6.78-4.52-4.52-6.78-9.95-6.78-16.3v-57.7h92.31c3.17,0,5.89,1.13,8.15,3.39,2.26,2.26,3.39,4.98,3.39,8.15v17.31c0,3.17-1.13,5.89-3.39,8.15-2.26,2.26-4.98,3.39-8.15,3.39h-11.54v17.31c0,6.35-2.26,11.78-6.78,16.3-4.52,4.52-9.95,6.78-16.3,6.78h-34.62ZM85.85,113.09h34.62c3.17,0,5.89-1.13,8.15-3.39,2.26-2.26,3.39-4.98,3.39-8.15v-46.16h-57.7v46.16c0,3.17,1.13,5.89,3.39,8.15,2.26,2.26,4.98,3.39,8.15,3.39ZM143.55,72.7h11.54v-17.31h-11.54v17.31ZM85.85,113.09h-11.54,57.7-46.16Z"/>
  <path d="M114.15,129.36v3.71c0,6.35-2.26,11.78-6.78,16.3-4.52,4.52-9.95,6.78-16.3,6.78h-34.62c-6.35,0-11.78-2.26-16.3-6.78-4.52-4.52-6.78-9.95-6.78-16.3v-57.7h24.5v11.54h-12.97v46.16c0,3.17,1.13,5.89,3.39,8.15,2.26,2.26,4.98,3.39,8.15,3.39h34.62c3.17,0,5.89-1.13,8.15-3.39,2.26-2.26,3.39-4.98,3.39-8.15v-3.71h11.54ZM56.45,144.61h-11.54,57.7-46.16Z"/>
</svg>