<?xml version="1.0" encoding="UTF-8"?>
<svg id="Layer_2" data-name="Layer 2" xmlns="http://www.w3.org/2000/svg" viewBox="0 0 200 200">
  <g>
    <circle cx="88.72" cy="94.11" r="33.02" fill="none" stroke="#000" stroke-miterlimit="10" stroke-width="12"/>
    <path d="M91.1,133.56c-2.89,0-45.5-.81-57.2,38.38" fill="none" stroke="#000" stroke-miterlimit="10" stroke-width="12"/>
    <path d="M88.99,133.56c2.87,0,44.84-.8,56.92,37.47" fill="none" stroke="#000" stroke-miterlimit="10" stroke-width="12"/>
  </g>
  <line x1="20.75" y1="172.94" x2="179.3" y2="172.94" fill="none" stroke="#000" stroke-miterlimit="10" stroke-width="12"/>
  <path d="M149.39,63.37v-14.53h7.77c2.95,0,5.15-.79,6.6-2.38,1.45-1.59,2.17-3.52,2.17-5.8,0-1.61-.32-3.02-.96-4.22-.64-1.2-1.56-2.14-2.76-2.84-1.2-.7-2.63-1.04-4.3-1.04-1.78,0-3.29.38-4.51,1.13-1.23.75-2.17,1.74-2.84,2.96s-1,2.62-1,4.17h-12.78c0-3.67.82-7,2.46-9.98,1.64-2.98,4.08-5.36,7.31-7.14,3.23-1.78,7.12-2.67,11.69-2.67,4.23,0,7.88.79,10.94,2.38,3.06,1.59,5.43,3.77,7.1,6.56,1.67,2.78,2.51,5.98,2.51,9.6v1c0,3.56-.85,6.69-2.55,9.39-1.7,2.7-4.16,4.82-7.39,6.35-3.23,1.53-7.15,2.35-11.78,2.46l5.76-4.59-.17,9.19h-13.28ZM148.39,83.83v-13.44h15.2v13.44h-15.2Z"/>
</svg>