<?xml version="1.0" encoding="UTF-8"?>
<svg id="Layer_2" data-name="Layer 2" xmlns="http://www.w3.org/2000/svg" viewBox="0 0 200 200">
  <path d="M51.29,87.66c-.23,1.31.07,2.63.84,3.72s1.91,1.81,3.22,2.04c.29.05.58.07.86.07,1.02,0,2.01-.31,2.86-.91,1.09-.77,1.81-1.91,2.04-3.22.47-2.7-1.35-5.29-4.05-5.75-2.7-.47-5.29,1.35-5.75,4.05Z"/>
  <path d="M174.43,85.4c-10.94-5.76-20.42-9.33-28.99-10.9l-.6-.11c-7.75-1.34-14.55-1.01-20.82,1.03-11.83,3.85-19.04,13.06-25.4,21.19-6.12,7.83-11.41,14.59-19.56,15.92-7.56,1.24-18.64-6.36-25.84-13.24-3.55-3.39-9.63-8.91-12.53-11.53,5.56-3.29,12.77-6.32,17.18-5.98,6.13.46,11.72,4.22,16.63,11.18l4.57,6.47,4.06-6.8c.04-.06,3.91-6.44,10.33-12.14,8.15-7.24,16.5-10.19,24.81-8.74l5.07.88,1.76-10.15-5.07-.88c-11.45-1.99-23.06,1.93-33.57,11.33-3.37,3.01-6.1,6.13-8.04,8.58-5.8-6.1-12.46-9.47-19.83-10.01-17.22-1.25-35.96,17.58-36.15,17.77l-1.71,1.8,2.33.88c1.55.59,2.95,1.08,4.23,1.53,6.69,2.34,10.04,3.51,16.87,12.99.81,1.13,1.6,2.23,2.38,3.32,10.34,14.45,18.51,25.86,33.4,28.44,2.84.49,5.63.74,8.36.74,9.23,0,17.81-2.81,25.58-8.4,8.94-6.43,16.63-16.5,22.89-29.95.88.46,1.78.99,2.7,1.59,3.86,2.52,9.88,7.5,16.64,16.89l3.01,4.18,8.36-6.01-3.01-4.18c-6.35-8.83-13.06-15.52-19.95-19.87-5.36-3.39-8.94-4.14-9.6-4.25l-4.05-.7-1.58,3.79c-5.85,14-13.06,24.14-21.42,30.16-7.74,5.57-16.54,7.54-26.17,5.88-5.31-.92-9.91-2.95-14.04-6.19,1.08.31,2.17.57,3.26.75,3.24.56,6.55.57,9.82.04,12.11-1.98,19.17-11.01,26.01-19.75,5.72-7.31,11.63-14.86,20.47-17.74,10.31-3.35,24.2-.31,42.43,9.3l4.56,2.4,4.8-9.11-4.56-2.4Z"/>
</svg>