<?xml version="1.0" encoding="UTF-8"?>
<svg id="Layer_2" data-name="Layer 2" xmlns="http://www.w3.org/2000/svg" viewBox="0 0 200 200">
  <path d="M162.41,37.48v125.04H37.59V37.48h124.82M178.99,20.9H21.01v158.21h157.99V20.9h0Z"/>
  <path d="M84.66,94.92v-12.84h25.35v12.84h-25.35ZM99.35,76.21c-3.26,0-5.68-.85-7.23-2.56-1.56-1.7-2.34-3.86-2.34-6.47s.78-4.88,2.34-6.58c1.56-1.7,3.97-2.56,7.23-2.56s5.67.85,7.23,2.56c1.56,1.7,2.34,3.9,2.34,6.58s-.78,4.77-2.34,6.47c-1.56,1.71-3.97,2.56-7.23,2.56ZM92.6,141.69v-59.61h17.41v59.61h-17.41Z"/>
</svg>