<?xml version="1.0" encoding="UTF-8"?>
<svg id="Layer_2" data-name="Layer 2" xmlns="http://www.w3.org/2000/svg" viewBox="0 0 200 200">
  <path d="M24.45,120.83l28.81-18.89c.41-.24.75-.6.97-1.03l18.62-35.76c.34-.66.96-1.14,1.68-1.31l38.68-9.34c1.77-.43,3.24,1.13,2.97,2.75-.07.41-.27.78-.53,1.1l-9.85,13.11c-.36.44-.86.75-1.41.87l-22.7,5.26" fill="none" stroke="#000" stroke-miterlimit="10" stroke-width="11"/>
  <path d="M43,152.54l30.41-25.82c.57-.54,1.36-.78,2.13-.67l24.38,3.53c.57.08,1.16-.03,1.66-.32l59.32-31.67" fill="none" stroke="#000" stroke-miterlimit="10" stroke-width="11"/>
  <circle cx="95.01" cy="100.42" r="7.89" fill="none" stroke="#000" stroke-miterlimit="10" stroke-width="9"/>
  <line x1="175.94" y1="73.21" x2="124.66" y2="97.35" fill="none" stroke="#000" stroke-miterlimit="10" stroke-width="11"/>
  <line x1="176.2" y1="56.15" x2="125.92" y2="79.43" fill="none" stroke="#000" stroke-miterlimit="10" stroke-width="11"/>
  <line x1="158.84" y1="47.46" x2="128.38" y2="61.69" fill="none" stroke="#000" stroke-miterlimit="10" stroke-width="11"/>
</svg>