<?xml version="1.0" encoding="UTF-8"?>
<svg id="Layer_2" data-name="Layer 2" xmlns="http://www.w3.org/2000/svg" viewBox="0 0 200 200">
  <path d="M104.36,21.13l29.12,47.32-4.84,19.27,38.99-8.83,4.45,9.87-30.43,30.63,26.15,9.95v11.11l-41.47,18.4-26.19-10.85-26.19,10.85-41.65-18.59v-10.77l26.34-10.1-30.72-30.17,4.47-10.4,38.81,8.78-5.62-19.11,30.26-47.38h8.52ZM100.15,134.35l26,10.78,21.9-9.77-29.03-11.07,27.47-27.66-35.1,7.95,8.55-34.05-19.91-32.51-20.73,32.45,10.07,34.21-35.57-8.05,27.47,27.66-29.03,11.07,21.9,9.77,26-10.78Z"/>
  <rect x="93.89" y="141.18" width="12.62" height="37.7"/>
</svg>