<?xml version="1.0" encoding="UTF-8"?>
<svg id="Layer_2" data-name="Layer 2" xmlns="http://www.w3.org/2000/svg" viewBox="0 0 200 200">
  <path d="M117.89,79.53c-3.06-3.03-6.36-3.65-8.6-3.64-.09,0-.18,0-.27,0-4.48.15-8.3,3.36-9.02,4l-.17.15-.17-.15c-.73-.64-4.58-3.81-9.06-3.92-.09,0-.18,0-.27,0-2.24.01-5.54.66-8.56,3.72-1.98,2-3.01,4.61-2.99,7.56.04,5.5,4.77,10.2,4.81,10.25l16.4,15.88,16.25-16.04s4.72-4.79,4.72-10.29c0-2.94-1.06-5.55-3.06-7.53Z"/>
  <polygon points="73.42 127.29 99.9 156.71 125.88 127.29 159.96 127.29 159.96 48.13 39.9 48.13 39.9 127.29 73.42 127.29" fill="none" stroke="#000" stroke-miterlimit="10" stroke-width="12"/>
</svg>