<?xml version="1.0" encoding="UTF-8"?>
<svg id="Layer_2" data-name="Layer 2" xmlns="http://www.w3.org/2000/svg" viewBox="0 0 200 200">
  <line x1="99.82" y1="166.45" x2="99.82" y2="82.06" fill="none" stroke="#000" stroke-miterlimit="10" stroke-width="10"/>
  <path d="M101.69,95.67c.5,0-.46-4.08.04-4.08,4.65,0,14.88-1.15,22.8,7.92,5.63,6.45,10.5,14.83,10.5,29.49l-33.33-33.33Z"/>
  <path d="M98.09,95.67c-.5,0,.46-4.08-.04-4.08-4.65,0-14.88-1.15-22.8,7.92-5.63,6.45-10.5,14.83-10.5,29.49l33.33-33.33Z"/>
  <path d="M99.42,86.96c0-.79-.01-1.58-.05-2.37-.54-12.83-3.3-23.09-13.06-32.85-4.75-4.75-15.55-13.65-35.76-13.65l48.87,48.87Z" fill="none" stroke="#000" stroke-miterlimit="10" stroke-width="10"/>
  <path d="M100.08,86.96c0-.79.01-1.58.05-2.37.54-12.83,3.3-23.09,13.06-32.85,4.75-4.75,15.55-13.65,35.76-13.65l-48.87,48.87Z" fill="none" stroke="#000" stroke-miterlimit="10" stroke-width="10"/>
  <path d="M100.4,88.84c.5-.5.99-1,1.52-1.46,7.72-6.77,13.95-16.23,27.02-16.23,17.8,0,30.87,14.6,33.83,17.69h-62.37Z" fill="none" stroke="#000" stroke-miterlimit="10" stroke-width="10"/>
  <path d="M99.39,88.84c-.5-.5-.99-1-1.52-1.46-7.72-6.77-13.95-16.23-27.02-16.23-17.8,0-30.87,14.6-33.83,17.69h62.37Z" fill="none" stroke="#000" stroke-miterlimit="10" stroke-width="10"/>
</svg>