<?xml version="1.0" encoding="UTF-8"?>
<svg id="Layer_2" data-name="Layer 2" xmlns="http://www.w3.org/2000/svg" viewBox="0 0 200 200">
  <path d="M162.41,37.48v125.04H37.59V37.48h124.82M178.99,20.9H21.01v158.21h157.99V20.9h0Z"/>
  <path d="M90.31,113v-17.56h9.39c3.57,0,6.22-.96,7.97-2.88,1.75-1.92,2.62-4.25,2.62-7.01,0-1.95-.39-3.65-1.16-5.1-.77-1.45-1.88-2.59-3.33-3.43-1.45-.84-3.18-1.26-5.2-1.26-2.15,0-3.97.45-5.45,1.36-1.48.91-2.62,2.1-3.43,3.58-.81,1.48-1.21,3.16-1.21,5.05h-15.44c0-4.44.99-8.46,2.98-12.06,1.98-3.6,4.93-6.48,8.83-8.63,3.9-2.15,8.61-3.23,14.13-3.23,5.11,0,9.52.96,13.22,2.88,3.7,1.92,6.56,4.56,8.58,7.92,2.02,3.37,3.03,7.23,3.03,11.61v1.21c0,4.31-1.03,8.09-3.08,11.36-2.05,3.26-5.03,5.82-8.93,7.67-3.9,1.85-8.65,2.84-14.23,2.98l6.96-5.55-.2,11.1h-16.05ZM89.1,137.73v-16.25h18.37v16.25h-18.37Z"/>
</svg>