<?xml version="1.0" encoding="UTF-8"?>
<svg id="Layer_2" data-name="Layer 2" xmlns="http://www.w3.org/2000/svg" viewBox="0 0 200 200">
  <path d="M162.47,37.24v125.04H37.42V37.24h125.05M179.05,20.67H20.85v158.19h158.2V20.67h0Z"/>
  <path d="M101.31,130.74c-4.33,0-8.04-.71-11.14-2.12-3.1-1.42-5.62-3.42-7.58-6.01-1.95-2.59-3.39-5.57-4.33-8.94s-1.4-6.98-1.4-10.82v-3.37c0-9.73,2.49-17.06,7.46-22.01,4.97-4.94,12.29-7.42,21.97-7.42,1.98,0,3.93.05,5.85.16,1.92.11,3.79.27,5.61.48v10.98c-1.76-.16-3.66-.31-5.69-.44-2.03-.13-4.12-.2-6.25-.2-4.28,0-7.64.71-10.1,2.12-2.46,1.42-4.2,3.54-5.21,6.37-1.02,2.83-1.52,6.33-1.52,10.5v6.09l-2.89,1.92c.05-4.01.87-7.36,2.45-10.06,1.58-2.7,3.75-4.72,6.53-6.05,2.78-1.34,5.99-2,9.62-2,4.12,0,7.67.82,10.66,2.45,2.99,1.63,5.29,3.92,6.89,6.86,1.6,2.94,2.41,6.41,2.41,10.42,0,4.22-.96,7.92-2.89,11.1-1.92,3.18-4.64,5.64-8.14,7.38s-7.6,2.61-12.31,2.61ZM100.91,119.83c2.35,0,4.34-.43,5.97-1.28,1.63-.85,2.89-2.02,3.77-3.49.88-1.47,1.32-3.19,1.32-5.17s-.43-3.78-1.28-5.25c-.86-1.47-2.07-2.62-3.65-3.45-1.58-.83-3.51-1.24-5.81-1.24-2.08,0-4,.36-5.73,1.08-1.74.72-3.11,1.82-4.13,3.29-1.02,1.47-1.52,3.33-1.52,5.57,0,1.92.41,3.64,1.24,5.13.83,1.5,2.07,2.67,3.73,3.53,1.66.86,3.69,1.28,6.09,1.28Z"/>
</svg>