<?xml version="1.0" encoding="UTF-8"?>
<svg id="Layer_2" data-name="Layer 2" xmlns="http://www.w3.org/2000/svg" viewBox="0 0 200 200">
  <path d="M136.19,145.48h-12.51c0-13.1-10.66-23.75-23.76-23.75s-23.76,10.65-23.76,23.75h-12.51c0-19.99,16.27-36.26,36.27-36.26s36.27,16.27,36.27,36.26Z"/>
  <path d="M136.19,145.48h-12.51c0-13.1-10.66-23.75-23.76-23.75s-23.76,10.65-23.76,23.75h-12.51c0-19.99,16.27-36.26,36.27-36.26s36.27,16.27,36.27,36.26Z"/>
  <path d="M99.93,95.46c2.2,0,4.36.19,6.48.47v-41.48c-2.14-.15-4.3-.26-6.48-.26s-4.49.11-6.71.27v41.5c2.2-.3,4.43-.5,6.71-.5Z"/>
  <path d="M147.83,132.73c1.13,4.17,1.79,8.54,1.79,13.07v-.55h41.57c-.03-4.25-.35-8.43-.94-12.52h-42.42Z"/>
  <path d="M129.49,105.47l20.28-36.4c-3.67-2.4-7.52-4.55-11.53-6.41l-20.25,36.35c4.14,1.64,8,3.83,11.51,6.46Z"/>
  <path d="M144.64,123.85l34.33-23.95c-2.21-3.82-4.69-7.47-7.42-10.91l-34.15,23.82c2.88,3.33,5.31,7.04,7.24,11.04Z"/>
  <path d="M52.17,132.73c-1.13,4.17-1.79,8.54-1.79,13.07v-.55H8.81c.03-4.25.35-8.43.94-12.52h42.42Z"/>
  <path d="M70.51,105.47l-20.28-36.4c3.67-2.4,7.52-4.55,11.53-6.41l20.25,36.35c-4.14,1.64-8,3.83-11.51,6.46Z"/>
  <path d="M55.36,123.85l-34.33-23.95c2.21-3.82,4.69-7.47,7.42-10.91l34.15,23.82c-2.88,3.33-5.31,7.04-7.24,11.04Z"/>
</svg>