<?xml version="1.0" encoding="UTF-8"?>
<svg id="Layer_2" data-name="Layer 2" xmlns="http://www.w3.org/2000/svg" viewBox="0 0 200 200">
  <path d="M162.47,37.24v125.04H37.42V37.24h125.05M179.05,20.67H20.85v158.19h158.2V20.67h0Z"/>
  <g>
    <path d="M71.93,129.05v-49.87l3.53,2.73h-14.99v-11.38h24.53v58.53h-13.07Z"/>
    <path d="M114.74,130.58c-4.65,0-8.63-.76-11.95-2.29-3.31-1.52-6-3.59-8.06-6.21-2.06-2.62-3.58-5.65-4.57-9.1-.99-3.45-1.48-7.1-1.48-10.94v-4.57c0-5.34.93-10.18,2.81-14.51,1.87-4.33,4.73-7.78,8.58-10.34,3.85-2.57,8.74-3.85,14.67-3.85s10.81,1.28,14.63,3.85c3.82,2.57,6.67,6.01,8.54,10.34,1.87,4.33,2.81,9.17,2.81,14.51v4.57c0,3.85-.5,7.5-1.48,10.94-.99,3.45-2.51,6.48-4.57,9.1-2.06,2.62-4.73,4.69-8.02,6.21s-7.26,2.29-11.91,2.29ZM114.74,118.47c4.33,0,7.55-1.51,9.66-4.53,2.11-3.02,3.17-7.71,3.17-14.07,0-6.74-1.08-11.59-3.25-14.55-2.16-2.97-5.36-4.45-9.58-4.45s-7.56,1.48-9.7,4.45c-2.14,2.97-3.21,7.76-3.21,14.39s1.05,11.14,3.17,14.19c2.11,3.05,5.36,4.57,9.74,4.57Z"/>
  </g>
</svg>