<?xml version="1.0" encoding="UTF-8"?>
<svg id="Layer_2" data-name="Layer 2" xmlns="http://www.w3.org/2000/svg" viewBox="0 0 200 200">
  <path d="M162.47,37.24v125.04H37.42V37.24h125.05M179.05,20.67H20.85v158.19h158.2V20.67h0Z"/>
  <path d="M99.14,130.58c-4.54,0-8.49-.84-11.83-2.53-3.34-1.68-5.89-3.97-7.66-6.86-1.76-2.89-2.65-6.15-2.65-9.78h12.67c0,2.46.83,4.45,2.49,5.97,1.66,1.52,3.98,2.29,6.98,2.29,1.98,0,3.66-.37,5.05-1.12,1.39-.75,2.46-1.78,3.21-3.09.75-1.31,1.12-2.79,1.12-4.45,0-2.57-.81-4.68-2.45-6.33-1.63-1.66-3.94-2.49-6.93-2.49-1.6,0-3.01.24-4.21.72-1.2.48-2.23,1.07-3.09,1.76l-5.93-10.02,17.72-11.54-.72-1.36h-23.49v-11.22h39.45v12.19l-20.45,12.99-6.41-1.76c1.07-.32,2.21-.57,3.41-.76,1.2-.19,2.5-.28,3.89-.28,4.54,0,8.44.75,11.71,2.25,3.26,1.5,5.79,3.59,7.58,6.29,1.79,2.7,2.69,5.84,2.69,9.42v.96c0,3.58-.9,6.79-2.69,9.62-1.79,2.83-4.33,5.06-7.62,6.69s-7.23,2.45-11.83,2.45Z"/>
</svg>