<?xml version="1.0" encoding="UTF-8"?>
<svg id="Layer_2" data-name="Layer 2" xmlns="http://www.w3.org/2000/svg" viewBox="0 0 200 200">
  <g>
    <path d="M152.41,137.96l3.21.04h10.34v-30.91c0-13.66-1.59-24.26-9.38-31.61-9.45-8.93-27.96-13.28-56.58-13.28-65.95,0-65.95,23.85-65.95,44.89v30.02h99.33l-.05-.04" fill="none" stroke="#000" stroke-miterlimit="10"/>
    <path d="M143.97,144.83l-6.65-5.55v-1.9c0-4.71,0-16.94,0-22.26,0-10.7-20.7-10.35-20.7-10.35,0,0-5.17-.09-10.35,1.16s-1.63,4.33-1.63,9.68c0,6.66-8.72,23.67-8.72,23.67l-8.78,5.2,56.83.36"/>
    <polygon points="153 150.33 165.62 150.33 165.37 150.12 152.75 150.12 153 150.33" fill="#fff"/>
  </g>
  <g>
    <path d="M85.22,94.09c12.11,0,21.93,9.82,21.93,21.93s-9.82,21.93-21.93,21.93-21.93-9.82-21.93-21.93" fill="none" stroke="#000" stroke-miterlimit="10" stroke-width="12"/>
    <path d="M63.29,116.02c0-12.11,9.82-21.93,21.93-21.93" fill="none" stroke="#000" stroke-miterlimit="10" stroke-width="12"/>
  </g>
  <path d="M178.96,107.09c0-14.73-1.63-29.89-13.45-41.06-12.15-11.48-32.96-16.83-65.5-16.83s-53.23,5.34-65.41,16.82c-11.9,11.21-13.54,26.36-13.54,41.07v43.02h131.68l-15.4-13H34.06v-30.02c0-21.04,0-44.89,65.95-44.89,28.62,0,47.12,4.34,56.58,13.28,7.78,7.35,9.38,17.96,9.38,31.61v30.02h-15.99l15.4,13h13.59v-43.02Z"/>
</svg>