<?xml version="1.0" encoding="UTF-8"?>
<svg id="Layer_2" data-name="Layer 2" xmlns="http://www.w3.org/2000/svg" viewBox="0 0 200 200">
  <path d="M170.37,155.25c-2.88-10.99-8.23-21.35-15.49-29.96-6.97-8.28-15.73-14.98-25.37-19.43-.02.15-.04.3-.06.44-.79,5.4-2.38,10.26-3.35,12.87,6.77,3.31,12.54,8.03,18.5,15.11,4.35,5.17,7.93,11.21,10.43,17.62-2.93.45-5.89.68-8.86.68-13.25,0-26.11-4.59-36.47-12.96,5.13-6.19,9.06-12.83,11.74-19.84l-.17-.06c.31-.81.6-1.61.88-2.43h0s0-.03,0-.03c.71-2.11,1.31-4.24,1.78-6.41l.53-2.43h-.02c.41-1.78.76-3.57,1.03-5.36l.06.02c2.64-16.61-.22-33.54-8.3-48.43-3.21-5.92-7.18-11.36-11.79-16.16l-4.76-4.96-4.84,4.87c-7.91,7.95-14.08,17.82-17.84,28.54-3.63,10.35-5.02,21.53-4.06,32.41,5.09-2.03,10.06-3.09,12.64-3.55.14-.03.28-.05.41-.07-.51-7.75.67-15.29,3.78-24.14,2.24-6.39,5.58-12.5,9.74-17.85,1.8,2.4,3.43,4.94,4.86,7.59,6.46,11.91,8.86,25.68,6.86,39.06-7.24-1.71-15.4-1.93-23.05-.72-.85.13-1.69.28-2.52.45h-.04l-2.61.6c-1.3.33-2.57.71-3.81,1.13l-.24.07c-2.48.73-4.89,1.6-7.25,2.58-15.15,6.3-27.72,17.6-35.89,32.42-3.25,5.9-5.71,12.21-7.3,18.74l-1.62,6.63,6.48,1.72c6.01,1.6,12.24,2.4,18.47,2.4,4.88,0,9.76-.49,14.54-1.48,9.34-1.93,18.54-5.89,26.61-11.45l2.2-1.52.28-.19-2.62-2.43c-1.85-1.72-3.77-3.49-5.49-5.6l-1.39-1.7-.38.26-1.44.96c-5.74,3.84-12.25,6.43-20.47,8.13-6.47,1.34-13.29,1.56-19.89.66,1.07-2.88,2.36-5.68,3.84-8.37,6.53-11.85,16.71-21.1,28.84-26.25,2.76,7.82,6.55,14.74,11.31,20.68.54.67,1.09,1.34,1.65,1.99h0s.02.02.02.02c1.46,1.68,3,3.28,4.62,4.78l1.82,1.69v-.02c1.34,1.26,2.71,2.46,4.1,3.6,12.81,10.49,28.59,16.19,45.18,16.19,6.6,0,13.15-.91,19.48-2.72l6.45-1.84-1.73-6.59ZM99.84,130.13c-3.93-4.71-7.03-10.21-9.36-16.61,5.95-.99,12.13-.85,18.64.45-2.05,5.69-5.12,11.05-9.28,16.16Z"/>
</svg>