<?xml version="1.0" encoding="UTF-8"?>
<svg id="Layer_2" data-name="Layer 2" xmlns="http://www.w3.org/2000/svg" viewBox="0 0 200 200">
  <path d="M162.47,37.24v125.04H37.42V37.24h125.05M179.05,20.67H20.85v158.19h158.2V20.67h0Z"/>
  <path d="M79.1,129.05v-12.03c0-2.51.41-4.7,1.24-6.57.83-1.87,2.15-3.54,3.97-5.01,1.82-1.47,4.22-2.85,7.22-4.13l9.46-4.09c2.41-1.01,4.18-2.27,5.33-3.77,1.15-1.5,1.72-3.39,1.72-5.69s-.72-4.28-2.16-5.77c-1.44-1.5-3.56-2.24-6.33-2.24s-4.89.78-6.33,2.33c-1.44,1.55-2.16,3.63-2.16,6.25h-12.75c0-3.69.8-7.01,2.41-9.98s3.98-5.3,7.14-7.02c3.15-1.71,7.06-2.57,11.71-2.57s8.54.83,11.67,2.49c3.13,1.66,5.5,3.88,7.14,6.65,1.63,2.78,2.45,5.91,2.45,9.38v.96c0,4.49-1.23,8.19-3.69,11.1-2.46,2.91-6.25,5.49-11.38,7.74l-9.38,4.09c-1.6.7-2.74,1.42-3.41,2.16-.67.75-1,1.76-1,3.05v4.01l-3.13-2.65h32.07v11.3h-41.77Z"/>
</svg>