<?xml version="1.0" encoding="UTF-8"?>
<svg id="Layer_2" data-name="Layer 2" xmlns="http://www.w3.org/2000/svg" viewBox="0 0 200 200">
  <path d="M100,191.36c-12.64,0-24.51-2.4-35.63-7.19-11.11-4.8-20.78-11.31-29.01-19.53-8.22-8.22-14.73-17.86-19.53-28.91-4.8-11.05-7.19-22.86-7.19-35.42s2.4-24.61,7.19-35.77c4.8-11.16,11.31-20.87,19.53-29.12,8.22-8.25,17.89-14.78,29.01-19.58,11.11-4.8,22.99-7.19,35.63-7.19s24.51,2.4,35.63,7.19c11.11,4.8,20.78,11.32,29.01,19.58,8.22,8.26,14.73,17.96,19.53,29.12,4.8,11.16,7.19,23.08,7.19,35.77,0,1.62-.03,3.25-.1,4.87-.06,1.62-.16,3.25-.29,4.87h-15.53c.3-1.62.49-3.25.57-4.87.08-1.62.11-3.25.11-4.87,0-3.32-.21-6.65-.64-9.97-.43-3.33-1.07-6.65-1.92-9.97h-34.75c.35,3.35.67,6.68.95,9.98.28,3.31.42,6.61.42,9.92,0,1.65-.03,3.29-.08,4.92-.05,1.62-.14,3.25-.26,4.87h-15.11c.15-1.62.23-3.25.23-4.87v-4.87c0-3.32-.11-6.65-.34-9.97-.23-3.33-.57-6.65-1.03-9.97h-46.98c-.5,3.35-.87,6.67-1.09,9.97-.23,3.3-.34,6.6-.34,9.9s.11,6.57.34,9.82c.23,3.25.57,6.5,1.03,9.75h43.24v15.22h-40.2c2.03,7.56,4.54,14.94,7.54,22.12,2.99,7.18,7.28,13.46,12.87,18.84,2.81,0,5.58-.15,8.31-.46,2.73-.3,5.52-.66,8.36-1.07l3.81,14.62c-3.53.76-6.94,1.33-10.24,1.71-3.3.38-6.71.57-10.24.57ZM26.42,119.79h34.75c-.41-3.25-.71-6.5-.91-9.75-.2-3.25-.3-6.5-.3-9.75s.09-6.65.26-9.97c.18-3.33.44-6.65.8-9.97H26.42c-.85,3.33-1.48,6.66-1.91,9.99-.42,3.33-.63,6.66-.63,9.99s.21,6.6.64,9.81c.43,3.22,1.07,6.43,1.92,9.64ZM32.09,65.13h31.76c1.61-6.75,3.65-13.33,6.11-19.76,2.46-6.42,5.52-12.62,9.17-18.61-10,3.35-19.08,8.26-27.26,14.73-8.17,6.47-14.77,14.35-19.79,23.64ZM78.99,173.08c-3.55-5.89-6.56-12.02-9.02-18.39-2.46-6.37-4.43-12.93-5.9-19.68h-31.97c4.82,9.39,11.29,17.4,19.41,24.02,8.12,6.62,17.28,11.31,27.48,14.05ZM79.6,65.13h40.96c-1.93-7.66-4.54-15.03-7.84-22.11-3.3-7.08-7.54-13.51-12.71-19.3-5.18,5.89-9.41,12.35-12.71,19.37-3.3,7.03-5.86,14.38-7.69,22.04ZM136.29,65.13h31.62c-5.02-9.29-11.6-17.19-19.72-23.71-8.12-6.52-17.18-11.36-27.18-14.5,3.65,5.89,6.71,12.04,9.17,18.46,2.46,6.42,4.49,13.01,6.1,19.76Z"/>
  <line x1="157.46" y1="187.53" x2="157.46" y2="120.54" fill="none" stroke="#000" stroke-miterlimit="10" stroke-width="14.34"/>
  <line x1="179.05" y1="142.15" x2="135.88" y2="142.15" fill="none" stroke="#000" stroke-miterlimit="10" stroke-width="14.34"/>
</svg>