<?xml version="1.0" encoding="UTF-8"?>
<svg id="Layer_2" data-name="Layer 2" xmlns="http://www.w3.org/2000/svg" viewBox="0 0 200 200">
  <path d="M100,191.47c-12.65,0-24.54-2.4-35.67-7.2-11.13-4.8-20.81-11.32-29.04-19.55-8.23-8.23-14.75-17.88-19.55-28.94-4.8-11.06-7.2-22.89-7.2-35.47s2.4-24.64,7.2-35.81c4.8-11.17,11.32-20.89,19.55-29.16,8.23-8.26,17.91-14.8,29.04-19.6s23.02-7.2,35.67-7.2,24.54,2.4,35.67,7.2c11.13,4.8,20.81,11.33,29.04,19.6,8.23,8.27,14.75,17.98,19.55,29.16,4.8,11.17,7.2,23.11,7.2,35.81,0,1.63-.03,3.25-.1,4.88-.06,1.63-.16,3.25-.29,4.88h-15.55c.3-1.63.5-3.25.57-4.88.08-1.63.11-3.25.11-4.88,0-3.33-.21-6.66-.64-9.98-.43-3.33-1.07-6.66-1.92-9.99h-34.79c.36,3.35.67,6.69.95,9.99.28,3.31.42,6.62.42,9.93,0,1.66-.03,3.3-.08,4.92-.05,1.63-.14,3.25-.27,4.88h-15.13c.15-1.63.23-3.25.23-4.88v-4.88c0-3.33-.11-6.66-.34-9.98-.23-3.33-.57-6.66-1.03-9.99h-47.04c-.5,3.35-.87,6.68-1.1,9.99-.23,3.3-.34,6.6-.34,9.91s.11,6.58.34,9.83c.23,3.25.57,6.5,1.03,9.76h43.3v15.24h-40.25c2.03,7.57,4.55,14.95,7.55,22.14,3,7.19,7.29,13.48,12.88,18.86,2.81,0,5.59-.15,8.32-.46,2.73-.3,5.53-.66,8.37-1.07l3.81,14.63c-3.53.76-6.95,1.33-10.25,1.71-3.3.38-6.72.57-10.25.57ZM26.34,119.82h34.79c-.41-3.25-.71-6.51-.91-9.76-.2-3.25-.3-6.5-.3-9.76s.09-6.66.27-9.98c.18-3.33.45-6.66.8-9.99H26.33c-.85,3.33-1.49,6.67-1.91,10-.42,3.33-.64,6.67-.64,10s.21,6.61.64,9.83c.43,3.22,1.07,6.44,1.92,9.66ZM32.01,65.09h31.8c1.62-6.76,3.66-13.35,6.12-19.78,2.47-6.43,5.53-12.64,9.19-18.64-10.01,3.35-19.11,8.27-27.29,14.75-8.18,6.48-14.79,14.37-19.82,23.67ZM78.96,173.17c-3.56-5.89-6.57-12.03-9.03-18.41-2.47-6.38-4.43-12.94-5.91-19.7h-32.01c4.83,9.4,11.31,17.42,19.44,24.05,8.13,6.63,17.3,11.32,27.52,14.06ZM79.57,65.09h41.01c-1.93-7.67-4.55-15.05-7.85-22.14-3.3-7.09-7.55-13.53-12.73-19.32-5.18,5.89-9.43,12.36-12.73,19.4-3.3,7.04-5.87,14.39-7.7,22.07ZM136.33,65.09h31.66c-5.03-9.3-11.61-17.21-19.74-23.74-8.13-6.53-17.2-11.37-27.21-14.52,3.66,5.89,6.72,12.06,9.19,18.48,2.46,6.43,4.5,13.02,6.11,19.78Z"/>
  <path d="M184.37,140.59c-4.04-4.01-8.42-4.83-11.38-4.82-.12,0-.24,0-.35,0-5.93.19-10.98,4.44-11.94,5.29l-.23.2-.23-.2c-.96-.84-6.06-5.04-11.98-5.18-.12,0-.24,0-.36,0-2.96.01-7.32.88-11.33,4.92-2.62,2.64-3.99,6.1-3.96,10,.06,7.28,6.3,13.5,6.37,13.56l21.69,21.01,21.5-21.21c.06-.06,6.25-6.34,6.24-13.62,0-3.9-1.41-7.34-4.05-9.96Z"/>
</svg>